<svg viewBox="446.64298561151077 303.0003 1870.5035971223022 1368" xmlns:xlink="http://www.w3.org/1999/xlink" xmlns="http://www.w3.org/2000/svg" style="max-height: 500px" width="1870.5035971223022" height="1368">
<rect fill-opacity="0" fill="rgb(91.195679%, 91.035461%, 91.075134%)" height="5400" width="6000" y="-450" x="-500"/>
<path d="M 757.546875 348.871094 L 2265.929688 348.871094 C 2274.859375 348.871094 2282.101562 356.121094 2282.101562 365.050781 L 2282.101562 1325.75 C 2282.101562 1330.210938 2280.289062 1334.261719 2277.371094 1337.179688 L 2026.308594 1588.230469 C 2023.148438 1591.390625 2019.011719 1592.96875 2014.878906 1592.96875 L 506.492188 1592.96875 C 497.5625 1592.96875 490.320312 1585.730469 490.320312 1576.800781 L 490.320312 616.101562 C 490.320312 611.640625 492.132812 607.589844 495.058594 604.671875 L 746.113281 353.609375 C 749.269531 350.460938 753.40625 348.878906 757.546875 348.878906 Z M 783.777344 428.371094 L 889 428.371094 L 936.15625 381.21875 L 2249.761719 381.21875 L 2249.761719 899.371094 L 2202.601562 946.53125 L 2202.601562 1299.519531 L 1988.648438 1513.46875 L 1883.421875 1513.46875 L 1836.269531 1560.628906 L 522.664062 1560.628906 L 522.664062 1042.46875 L 569.820312 995.320312 L 569.820312 642.328125 L 783.777344 428.371094" fill-opacity="1" fill="#EFE700" fill-rule="evenodd"/>
<path d="M 1494.738281 3011.46875 L 2184.800781 3011.46875 L 2184.800781 2119.28125 L 1956.699219 1891.179688 L 537.046875 1891.179688 L 537.046875 2769.160156 L 1242.761719 2769.160156 C 1249.210938 2769.160156 1255.050781 2771.78125 1259.269531 2776.011719 Z M 820.65625 3007.640625 L 707.472656 3007.640625 L 566.148438 2864.929688 L 679.332031 2864.929688 Z M 997.753906 3007.640625 L 884.570312 3007.640625 L 743.242188 2864.929688 L 856.429688 2864.929688 Z M 1174.871094 3007.640625 L 1061.679688 3007.640625 L 920.363281 2864.929688 L 1033.550781 2864.929688 Z M 1351.988281 3007.640625 L 1238.800781 3007.640625 L 1097.480469 2864.929688 L 1210.660156 2864.929688 Z M 2161.25 1979.128906 L 1985.128906 1803.011719 L 1783.46875 1803.011719 L 1742.421875 1844.460938 L 513.683594 1844.460938 C 500.78125 1844.460938 490.320312 1854.921875 490.320312 1867.820312 L 490.320312 2792.519531 C 490.320312 2805.429688 500.78125 2815.890625 513.683594 2815.890625 L 1233.078125 2815.890625 L 1465.351562 3048.148438 C 1469.570312 3054.21875 1476.589844 3058.191406 1484.539062 3058.191406 L 2208.160156 3058.191406 C 2221.058594 3058.191406 2231.519531 3047.730469 2231.519531 3034.828125 L 2231.519531 2361.128906 L 2282.960938 2310.191406 L 2282.960938 2100.839844 L 2161.25 1979.128906" fill-opacity="1" fill="#EFE700" fill-rule="evenodd"/>
<path d="M 4187.441406 1461.511719 C 4239.941406 1461.511719 4287.480469 1482.789062 4321.890625 1517.199219 C 4356.289062 1551.609375 4377.578125 1599.148438 4377.578125 1651.648438 C 4377.578125 1704.148438 4356.300781 1751.691406 4321.890625 1786.101562 C 4287.480469 1820.511719 4239.941406 1841.789062 4187.441406 1841.789062 C 4134.929688 1841.789062 4087.390625 1820.511719 4052.988281 1786.101562 C 4018.578125 1751.691406 3997.289062 1704.148438 3997.289062 1651.648438 C 3997.289062 1599.148438 4018.578125 1551.609375 4052.988281 1517.199219 C 4087.390625 1482.789062 4134.929688 1461.511719 4187.441406 1461.511719 Z M 4214.300781 1606.929688 L 4238.660156 1566.359375 L 4265.199219 1522.160156 C 4275.789062 1528.539062 4285.539062 1536.171875 4294.230469 1544.859375 C 4320.980469 1571.621094 4337.738281 1608.371094 4338.429688 1649.039062 L 4286.910156 1649.929688 L 4239.589844 1650.75 L 4239.601562 1651.648438 C 4239.601562 1671.28125 4228.761719 1688.371094 4212.738281 1697.269531 L 4235.691406 1738.660156 L 4260.691406 1783.738281 C 4239 1795.800781 4214.019531 1802.671875 4187.441406 1802.671875 C 4160.851562 1802.671875 4135.871094 1795.800781 4114.179688 1783.738281 L 4139.179688 1738.660156 L 4162.128906 1697.269531 C 4146.109375 1688.371094 4135.269531 1671.28125 4135.269531 1651.648438 L 4135.28125 1650.75 L 4087.960938 1649.929688 L 4036.441406 1649.039062 C 4037.128906 1608.371094 4053.890625 1571.621094 4080.648438 1544.859375 C 4089.328125 1536.171875 4099.078125 1528.539062 4109.671875 1522.160156 L 4136.210938 1566.359375 L 4160.570312 1606.921875 C 4168.421875 1602.199219 4177.609375 1599.480469 4187.441406 1599.480469 C 4197.261719 1599.480469 4206.449219 1602.199219 4214.300781 1606.929688 Z M 4187.441406 1608.179688 C 4211.441406 1608.179688 4230.910156 1627.640625 4230.910156 1651.648438 C 4230.910156 1675.660156 4211.441406 1695.121094 4187.441406 1695.121094 C 4163.429688 1695.121094 4143.96875 1675.660156 4143.96875 1651.648438 C 4143.96875 1627.640625 4163.429688 1608.179688 4187.441406 1608.179688" fill-opacity="1" fill="#EFE700" fill-rule="evenodd"/>
<path d="M 500.921875 3408.519531 L 2274.851562 3408.519531 C 2279.328125 3408.519531 2282.960938 3412.148438 2282.960938 3416.628906 L 2282.960938 3506.828125 C 2282.960938 3511.308594 2279.328125 3514.945312 2274.851562 3514.945312 L 500.921875 3514.945312 C 496.4375 3514.945312 492.800781 3511.308594 492.800781 3506.828125 L 492.800781 3416.628906 C 492.800781 3412.148438 496.4375 3408.519531 500.921875 3408.519531 Z M 2266.730469 3424.75 L 509.035156 3424.75 L 509.035156 3498.710938 L 2266.730469 3498.710938 L 2266.730469 3424.75" fill-opacity="1" fill="#EFE700" fill-rule="nonzero"/>
<path d="M 500.921875 3416.628906 L 964.804688 3416.628906 L 964.804688 3506.828125 L 500.921875 3506.828125 L 500.921875 3416.628906" fill-opacity="1" fill="#EFE700" fill-rule="evenodd"/>
<path d="M 500.921875 3623.28125 L 2274.851562 3623.28125 C 2279.328125 3623.28125 2282.960938 3626.917969 2282.960938 3631.398438 L 2282.960938 3721.59375 C 2282.960938 3726.074219 2279.328125 3729.710938 2274.851562 3729.710938 L 500.921875 3729.710938 C 496.4375 3729.710938 492.800781 3726.074219 492.800781 3721.59375 L 492.800781 3631.398438 C 492.800781 3626.917969 496.4375 3623.28125 500.921875 3623.28125 Z M 2266.730469 3639.515625 L 509.035156 3639.515625 L 509.035156 3713.476562 L 2266.730469 3713.476562 L 2266.730469 3639.515625" fill-opacity="1" fill="#EFE700" fill-rule="nonzero"/>
<path d="M 500.921875 3838.050781 L 2274.851562 3838.050781 C 2279.328125 3838.050781 2282.960938 3841.683594 2282.960938 3846.164062 L 2282.960938 3936.359375 C 2282.960938 3940.84375 2279.328125 3944.476562 2274.851562 3944.476562 L 500.921875 3944.476562 C 496.4375 3944.476562 492.800781 3940.84375 492.800781 3936.359375 L 492.800781 3846.164062 C 492.800781 3841.683594 496.4375 3838.050781 500.921875 3838.050781 Z M 2266.730469 3854.28125 L 509.035156 3854.28125 L 509.035156 3928.242188 L 2266.730469 3928.242188 L 2266.730469 3854.28125" fill-opacity="1" fill="#EFE700" fill-rule="nonzero"/>
<path d="M 500.921875 4060.933594 L 2274.851562 4060.933594 L 2274.851562 4151.128906 L 500.921875 4151.128906 L 500.921875 4060.933594" fill-opacity="1" fill="#EFE700" fill-rule="evenodd"/>
<path d="M 500.921875 3631.398438 L 1387.878906 3631.398438 L 1387.878906 3721.59375 L 500.921875 3721.59375 L 500.921875 3631.398438" fill-opacity="1" fill="#EFE700" fill-rule="evenodd"/>
<path d="M 500.921875 3846.164062 L 1832.441406 3846.164062 L 1832.441406 3936.359375 L 500.921875 3936.359375 L 500.921875 3846.164062" fill-opacity="1" fill="#EFE700" fill-rule="evenodd"/>
<path d="M 500.921875 3362.210938 L 605.066406 3362.210938 L 605.066406 3393.738281 L 500.921875 3393.738281 L 500.921875 3362.210938" fill-opacity="1" fill="#EFE700" fill-rule="evenodd"/>
<path d="M 624.9375 3362.210938 L 659.296875 3362.210938 L 659.296875 3393.738281 L 624.9375 3393.738281 L 624.9375 3362.210938" fill-opacity="1" fill="#EFE700" fill-rule="evenodd"/>
<path d="M 677.285156 3362.210938 L 704.257812 3362.210938 L 704.257812 3393.738281 L 677.285156 3393.738281 L 677.285156 3362.210938" fill-opacity="1" fill="#EFE700" fill-rule="evenodd"/>
<path d="M 716.546875 3362.210938 L 737.015625 3362.210938 L 737.015625 3393.738281 L 716.546875 3393.738281 L 716.546875 3362.210938" fill-opacity="1" fill="#EFE700" fill-rule="evenodd"/>
<path d="M 500.921875 3575.84375 L 605.066406 3575.84375 L 605.066406 3607.363281 L 500.921875 3607.363281 L 500.921875 3575.84375" fill-opacity="1" fill="#EFE700" fill-rule="evenodd"/>
<path d="M 500.921875 3789.472656 L 605.066406 3789.472656 L 605.066406 3820.996094 L 500.921875 3820.996094 L 500.921875 3789.472656" fill-opacity="1" fill="#EFE700" fill-rule="evenodd"/>
<path d="M 500.921875 4003.101562 L 605.066406 4003.101562 L 605.066406 4034.625 L 500.921875 4034.625 L 500.921875 4003.101562" fill-opacity="1" fill="#EFE700" fill-rule="evenodd"/>
<path d="M 624.9375 3575.84375 L 659.296875 3575.84375 L 659.296875 3607.363281 L 624.9375 3607.363281 L 624.9375 3575.84375" fill-opacity="1" fill="#EFE700" fill-rule="evenodd"/>
<path d="M 624.9375 3789.472656 L 659.296875 3789.472656 L 659.296875 3820.996094 L 624.9375 3820.996094 L 624.9375 3789.472656" fill-opacity="1" fill="#EFE700" fill-rule="evenodd"/>
<path d="M 624.9375 4003.101562 L 659.296875 4003.101562 L 659.296875 4034.625 L 624.9375 4034.625 L 624.9375 4003.101562" fill-opacity="1" fill="#EFE700" fill-rule="evenodd"/>
<path d="M 677.285156 3575.84375 L 704.257812 3575.84375 L 704.257812 3607.363281 L 677.285156 3607.363281 L 677.285156 3575.84375" fill-opacity="1" fill="#EFE700" fill-rule="evenodd"/>
<path d="M 677.285156 3789.472656 L 704.257812 3789.472656 L 704.257812 3820.996094 L 677.285156 3820.996094 L 677.285156 3789.472656" fill-opacity="1" fill="#EFE700" fill-rule="evenodd"/>
<path d="M 677.285156 4003.101562 L 704.257812 4003.101562 L 704.257812 4034.625 L 677.285156 4034.625 L 677.285156 4003.101562" fill-opacity="1" fill="#EFE700" fill-rule="evenodd"/>
<path d="M 716.546875 3575.84375 L 737.015625 3575.84375 L 737.015625 3607.363281 L 716.546875 3607.363281 L 716.546875 3575.84375" fill-opacity="1" fill="#EFE700" fill-rule="evenodd"/>
<path d="M 716.546875 3789.472656 L 737.015625 3789.472656 L 737.015625 3820.996094 L 716.546875 3820.996094 L 716.546875 3789.472656" fill-opacity="1" fill="#EFE700" fill-rule="evenodd"/>
<path d="M 716.546875 4003.101562 L 737.015625 4003.101562 L 737.015625 4034.625 L 716.546875 4034.625 L 716.546875 4003.101562" fill-opacity="1" fill="#EFE700" fill-rule="evenodd"/>
<path d="M 3154.601562 2221.640625 L 3154.601562 2221.191406 C 3154.789062 2190.578125 3194.421875 2163.390625 3258.378906 2144.148438 C 3320.960938 2125.328125 3407.339844 2113.679688 3502.679688 2113.679688 C 3598.011719 2113.679688 3684.390625 2125.328125 3746.980469 2144.148438 C 3810.941406 2163.390625 3850.558594 2190.578125 3850.75 2221.191406 L 3850.761719 2221.300781 L 3850.761719 2221.519531 L 3850.75 2221.640625 C 3850.558594 2252.25 3810.941406 2279.441406 3746.980469 2298.679688 C 3684.390625 2317.5 3598.011719 2329.148438 3502.679688 2329.148438 C 3407.339844 2329.148438 3320.960938 2317.5 3258.378906 2298.679688 C 3194.421875 2279.441406 3154.789062 2252.25 3154.601562 2221.640625 Z M 3163.621094 2217.070312 L 3238.050781 2217.070312 C 3240.769531 2188.328125 3270.378906 2162.75 3316.890625 2144.289062 C 3327.121094 2140.230469 3338.179688 2136.5 3349.96875 2133.148438 C 3316.828125 2138.121094 3286.761719 2144.671875 3260.851562 2152.460938 C 3203.890625 2169.601562 3167.460938 2192.339844 3163.621094 2217.070312 Z M 3655.390625 2133.148438 C 3667.171875 2136.5 3678.238281 2140.230469 3688.46875 2144.289062 C 3734.96875 2162.75 3764.578125 2188.328125 3767.300781 2217.070312 L 3841.730469 2217.070312 C 3837.890625 2192.339844 3801.460938 2169.601562 3744.5 2152.460938 C 3718.589844 2144.671875 3688.53125 2138.121094 3655.390625 2133.148438 Z M 3841.730469 2225.761719 L 3767.300781 2225.761719 C 3764.578125 2254.5 3734.96875 2280.078125 3688.46875 2298.539062 C 3678.238281 2302.601562 3667.171875 2306.328125 3655.390625 2309.679688 C 3688.53125 2304.699219 3718.589844 2298.160156 3744.5 2290.371094 C 3801.460938 2273.230469 3837.890625 2250.480469 3841.730469 2225.761719 Z M 3349.96875 2309.679688 C 3338.179688 2306.328125 3327.121094 2302.601562 3316.890625 2298.539062 C 3270.378906 2280.078125 3240.769531 2254.5 3238.050781 2225.761719 L 3163.621094 2225.761719 C 3167.460938 2250.480469 3203.890625 2273.230469 3260.851562 2290.371094 C 3286.761719 2298.160156 3316.828125 2304.699219 3349.96875 2309.679688 Z M 3246.78125 2217.070312 L 3321.238281 2217.070312 C 3323.109375 2188.609375 3343.371094 2163.109375 3375.179688 2144.558594 C 3384.96875 2138.839844 3395.878906 2133.78125 3407.699219 2129.488281 C 3374.550781 2134.691406 3344.800781 2142.511719 3320.070312 2152.320312 C 3277.121094 2169.371094 3249.660156 2192.160156 3246.78125 2217.070312 Z M 3597.660156 2129.488281 C 3609.46875 2133.78125 3620.378906 2138.839844 3630.179688 2144.558594 C 3661.980469 2163.109375 3682.238281 2188.609375 3684.121094 2217.070312 L 3758.570312 2217.070312 C 3755.691406 2192.160156 3728.230469 2169.371094 3685.28125 2152.320312 C 3660.558594 2142.511719 3630.800781 2134.691406 3597.660156 2129.488281 Z M 3758.570312 2225.761719 L 3684.121094 2225.761719 C 3682.238281 2254.21875 3661.980469 2279.71875 3630.179688 2298.269531 C 3620.378906 2303.988281 3609.46875 2309.039062 3597.660156 2313.328125 C 3630.800781 2308.140625 3660.558594 2300.308594 3685.28125 2290.5 C 3728.230469 2273.460938 3755.691406 2250.671875 3758.570312 2225.761719 Z M 3407.699219 2313.328125 C 3395.878906 2309.039062 3384.96875 2303.988281 3375.179688 2298.269531 C 3343.371094 2279.71875 3323.109375 2254.21875 3321.238281 2225.761719 L 3246.78125 2225.761719 C 3249.660156 2250.671875 3277.121094 2273.460938 3320.070312 2290.5 C 3344.800781 2300.308594 3374.550781 2308.140625 3407.699219 2313.328125 Z M 3329.941406 2217.070312 L 3404.421875 2217.070312 C 3405.429688 2189.128906 3416.171875 2163.910156 3433.011719 2145.390625 C 3440.101562 2137.589844 3448.269531 2130.980469 3457.25 2125.839844 C 3427.371094 2130.519531 3400.699219 2139.699219 3379.519531 2152.050781 C 3350.449219 2169.011719 3331.871094 2191.878906 3329.941406 2217.070312 Z M 3548.101562 2125.839844 C 3557.089844 2130.980469 3565.261719 2137.589844 3572.351562 2145.390625 C 3589.191406 2163.910156 3599.921875 2189.128906 3600.941406 2217.070312 L 3675.410156 2217.070312 C 3673.480469 2191.878906 3654.898438 2169.011719 3625.839844 2152.050781 C 3604.648438 2139.699219 3577.980469 2130.519531 3548.101562 2125.839844 Z M 3675.410156 2225.761719 L 3600.941406 2225.761719 C 3599.921875 2253.691406 3589.191406 2278.910156 3572.351562 2297.441406 C 3565.261719 2305.238281 3557.089844 2311.851562 3548.101562 2316.988281 C 3577.980469 2312.308594 3604.648438 2303.128906 3625.839844 2290.769531 C 3654.898438 2273.820312 3673.480469 2250.941406 3675.410156 2225.761719 Z M 3457.25 2316.988281 C 3448.269531 2311.851562 3440.101562 2305.238281 3433.011719 2297.441406 C 3416.171875 2278.910156 3405.429688 2253.691406 3404.421875 2225.761719 L 3329.941406 2225.761719 C 3331.871094 2250.941406 3350.449219 2273.820312 3379.519531 2290.769531 C 3400.699219 2303.128906 3427.371094 2312.308594 3457.25 2316.988281 Z M 3413.109375 2217.070312 L 3592.238281 2217.070312 C 3591.238281 2191.359375 3581.378906 2168.210938 3565.941406 2151.21875 C 3549.730469 2133.390625 3527.359375 2122.371094 3502.679688 2122.371094 C 3478 2122.371094 3455.628906 2133.390625 3439.421875 2151.21875 C 3423.980469 2168.210938 3414.109375 2191.359375 3413.109375 2217.070312 Z M 3592.238281 2225.761719 L 3413.109375 2225.761719 C 3414.109375 2251.46875 3423.980469 2274.621094 3439.421875 2291.601562 C 3455.628906 2309.429688 3478 2320.460938 3502.679688 2320.460938 C 3527.359375 2320.460938 3549.730469 2309.429688 3565.941406 2291.601562 C 3581.378906 2274.621094 3591.238281 2251.46875 3592.238281 2225.761719" fill-opacity="1" fill="#EFE700" fill-rule="nonzero"/>
<path d="M 2791.128906 3253.039062 L 4242.011719 3253.039062 C 4267.511719 3253.039062 4290.691406 3263.46875 4307.488281 3280.261719 C 4324.289062 3297.058594 4334.710938 3320.238281 4334.710938 3345.738281 L 4334.710938 3345.75 C 4334.710938 3371.25 4324.289062 3394.429688 4307.488281 3411.230469 C 4290.691406 3428.019531 4267.511719 3438.449219 4242.011719 3438.449219 L 2791.128906 3438.449219 C 2765.621094 3438.449219 2742.441406 3428.019531 2725.648438 3411.230469 C 2708.859375 3394.429688 2698.429688 3371.25 2698.429688 3345.75 L 2698.429688 3345.738281 C 2698.429688 3320.238281 2708.859375 3297.058594 2725.648438 3280.261719 C 2742.441406 3263.46875 2765.621094 3253.039062 2791.128906 3253.039062 Z M 3600.089844 3345.738281 C 3600.089844 3308.351562 3629.269531 3277.441406 3665.988281 3274.660156 L 4242.011719 3274.660156 C 4261.550781 3274.660156 4279.320312 3282.660156 4292.210938 3295.539062 C 4305.089844 3308.429688 4313.089844 3326.199219 4313.089844 3345.738281 L 4313.089844 3345.75 C 4313.089844 3365.28125 4305.089844 3383.058594 4292.210938 3395.941406 C 4279.320312 3408.828125 4261.550781 3416.828125 4242.011719 3416.828125 L 3665.988281 3416.828125 C 3629.269531 3414.050781 3600.089844 3383.140625 3600.089844 3345.738281" fill-opacity="1" fill="#EFE700" fill-rule="evenodd"/>
<path d="M 4242.011719 3609.378906 L 2791.140625 3609.378906 C 2765.628906 3609.378906 2742.449219 3619.804688 2725.648438 3636.601562 C 2708.859375 3653.394531 2698.429688 3676.574219 2698.429688 3702.078125 L 2698.429688 3702.085938 C 2698.429688 3727.589844 2708.859375 3750.769531 2725.648438 3767.566406 C 2742.449219 3784.359375 2765.628906 3794.789062 2791.140625 3794.789062 L 4242.011719 3794.789062 C 4267.519531 3794.789062 4290.699219 3784.359375 4307.488281 3767.566406 C 4324.289062 3750.769531 4334.71875 3727.589844 4334.71875 3702.085938 L 4334.71875 3702.078125 C 4334.71875 3676.574219 4324.289062 3653.394531 4307.488281 3636.601562 C 4290.699219 3619.804688 4267.519531 3609.378906 4242.011719 3609.378906 Z M 3963.21875 3702.078125 C 3963.21875 3664.683594 3934.039062 3633.777344 3897.320312 3630.992188 L 2791.140625 3630.992188 C 2771.601562 3630.992188 2753.820312 3638.996094 2740.941406 3651.882812 C 2728.050781 3664.769531 2720.050781 3682.542969 2720.050781 3702.078125 L 2720.050781 3702.085938 C 2720.050781 3721.621094 2728.050781 3739.394531 2740.941406 3752.28125 C 2753.820312 3765.167969 2771.601562 3773.171875 2791.140625 3773.171875 L 3897.320312 3773.171875 C 3934.039062 3770.390625 3963.21875 3739.480469 3963.21875 3702.078125" fill-opacity="1" fill="#EFE700" fill-rule="evenodd"/>
<path d="M 4242.011719 3965.714844 L 2791.128906 3965.714844 C 2765.628906 3965.714844 2742.449219 3976.144531 2725.648438 3992.9375 C 2708.859375 4009.734375 2698.429688 4032.914062 2698.429688 4058.421875 C 2698.429688 4083.929688 2708.859375 4107.109375 2725.648438 4123.902344 C 2742.449219 4140.699219 2765.628906 4151.128906 2791.128906 4151.128906 L 4242.011719 4151.128906 C 4267.519531 4151.128906 4290.699219 4140.699219 4307.488281 4123.902344 C 4324.289062 4107.109375 4334.71875 4083.929688 4334.71875 4058.421875 C 4334.71875 4032.914062 4324.289062 4009.734375 4307.488281 3992.9375 C 4290.699219 3976.144531 4267.519531 3965.714844 4242.011719 3965.714844 Z M 2795.980469 3997.484375 C 2829.640625 3997.484375 2856.921875 4024.765625 2856.921875 4058.421875 C 2856.921875 4092.078125 2829.640625 4119.359375 2795.980469 4119.359375 C 2762.328125 4119.359375 2735.050781 4092.078125 2735.050781 4058.421875 C 2735.050781 4024.765625 2762.328125 3997.484375 2795.980469 3997.484375 Z M 3548.828125 4058.421875 C 3548.828125 4021.023438 3519.660156 3990.113281 3482.941406 3987.332031 L 2791.128906 3987.332031 C 2771.601562 3987.332031 2753.820312 3995.335938 2740.941406 4008.222656 C 2728.050781 4021.109375 2720.050781 4038.882812 2720.050781 4058.421875 C 2720.050781 4077.960938 2728.050781 4095.734375 2740.941406 4108.621094 C 2753.820312 4121.507812 2771.601562 4129.507812 2791.128906 4129.507812 L 3482.941406 4129.507812 C 3519.660156 4126.726562 3548.828125 4095.820312 3548.828125 4058.421875" fill-opacity="1" fill="#EFE700" fill-rule="evenodd"/>
<path d="M 4187.441406 2061.898438 C 4231.480469 2061.898438 4271.359375 2079.761719 4300.230469 2108.621094 C 4329.089844 2137.488281 4346.949219 2177.371094 4346.949219 2221.410156 C 4346.949219 2265.460938 4329.089844 2305.339844 4300.230469 2334.199219 C 4271.359375 2363.070312 4231.480469 2380.921875 4187.441406 2380.921875 C 4143.390625 2380.921875 4103.511719 2363.070312 4074.648438 2334.199219 C 4045.78125 2305.339844 4027.929688 2265.460938 4027.929688 2221.410156 C 4027.929688 2177.371094 4045.78125 2137.488281 4074.648438 2108.621094 C 4103.511719 2079.761719 4143.390625 2061.898438 4187.441406 2061.898438 Z M 4296.46875 2112.378906 C 4268.570312 2084.46875 4230.019531 2067.210938 4187.441406 2067.210938 C 4144.859375 2067.210938 4106.300781 2084.46875 4078.398438 2112.378906 C 4050.488281 2140.28125 4033.230469 2178.828125 4033.230469 2221.410156 C 4033.230469 2263.988281 4050.488281 2302.550781 4078.398438 2330.449219 C 4106.300781 2358.359375 4144.859375 2375.621094 4187.441406 2375.621094 C 4230.019531 2375.621094 4268.570312 2358.359375 4296.46875 2330.449219 C 4324.378906 2302.550781 4341.640625 2263.988281 4341.640625 2221.410156 C 4341.640625 2178.828125 4324.378906 2140.28125 4296.46875 2112.378906" fill-opacity="1" fill="#EFE700" fill-rule="nonzero"/>
<path d="M 4346.949219 2221.410156 C 4346.949219 2265.460938 4329.089844 2305.339844 4300.230469 2334.199219 C 4271.359375 2363.070312 4231.480469 2380.921875 4187.441406 2380.921875 C 4143.390625 2380.921875 4103.511719 2363.070312 4074.648438 2334.199219 C 4045.78125 2305.339844 4027.929688 2265.460938 4027.929688 2221.410156 C 4027.929688 2177.371094 4045.78125 2137.488281 4074.648438 2108.621094 C 4103.511719 2079.761719 4143.390625 2061.898438 4187.441406 2061.898438 C 4231.480469 2061.898438 4271.359375 2079.761719 4300.230469 2108.621094 C 4329.089844 2137.488281 4346.949219 2177.371094 4346.949219 2221.410156 Z M 4296.46875 2330.449219 C 4324.378906 2302.550781 4341.640625 2263.988281 4341.640625 2221.410156 C 4341.640625 2178.828125 4324.378906 2140.28125 4296.46875 2112.378906 C 4268.570312 2084.46875 4230.019531 2067.210938 4187.441406 2067.210938 C 4144.859375 2067.210938 4106.300781 2084.46875 4078.398438 2112.378906 C 4050.488281 2140.28125 4033.230469 2178.828125 4033.230469 2221.410156 C 4033.230469 2263.988281 4050.488281 2302.550781 4078.398438 2330.449219 C 4106.300781 2358.359375 4144.859375 2375.621094 4187.441406 2375.621094 C 4230.019531 2375.621094 4268.570312 2358.359375 4296.46875 2330.449219" fill-opacity="1" fill="#EFE700" fill-rule="nonzero"/>
<path d="M 4187.441406 2061.898438 C 4215.28125 2061.898438 4240.378906 2079.949219 4258.46875 2109.109375 C 4276.320312 2137.898438 4287.371094 2177.609375 4287.371094 2221.410156 C 4287.371094 2265.21875 4276.320312 2304.929688 4258.46875 2333.71875 C 4240.378906 2362.878906 4215.269531 2380.921875 4187.441406 2380.921875 C 4159.601562 2380.921875 4134.488281 2362.878906 4116.398438 2333.71875 C 4098.550781 2304.929688 4087.511719 2265.21875 4087.511719 2221.410156 C 4087.511719 2177.609375 4098.550781 2137.898438 4116.398438 2109.109375 C 4134.488281 2079.949219 4159.601562 2061.898438 4187.441406 2061.898438 Z M 4253.96875 2111.890625 C 4236.851562 2084.289062 4213.320312 2067.210938 4187.441406 2067.210938 C 4161.550781 2067.210938 4138.019531 2084.289062 4120.898438 2111.890625 C 4103.550781 2139.871094 4092.808594 2178.589844 4092.808594 2221.410156 C 4092.808594 2264.238281 4103.550781 2302.960938 4120.898438 2330.941406 C 4138.019531 2358.539062 4161.550781 2375.621094 4187.441406 2375.621094 C 4213.320312 2375.621094 4236.851562 2358.539062 4253.96875 2330.941406 C 4271.320312 2302.960938 4282.058594 2264.238281 4282.058594 2221.410156 C 4282.058594 2178.589844 4271.320312 2139.871094 4253.96875 2111.890625" fill-opacity="1" fill="#EFE700" fill-rule="nonzero"/>
<path d="M 4346.949219 2221.410156 C 4346.949219 2249.25 4328.898438 2274.359375 4299.738281 2292.449219 C 4270.949219 2310.300781 4231.238281 2321.339844 4187.441406 2321.339844 C 4143.628906 2321.339844 4103.921875 2310.300781 4075.128906 2292.449219 C 4045.96875 2274.359375 4027.929688 2249.25 4027.929688 2221.410156 C 4027.929688 2193.578125 4045.96875 2168.46875 4075.128906 2150.378906 C 4103.921875 2132.53125 4143.628906 2121.480469 4187.441406 2121.480469 C 4231.238281 2121.480469 4270.949219 2132.53125 4299.738281 2150.378906 C 4328.898438 2168.46875 4346.949219 2193.570312 4346.949219 2221.410156 Z M 4296.960938 2287.949219 C 4324.558594 2270.828125 4341.640625 2247.300781 4341.640625 2221.410156 C 4341.640625 2195.53125 4324.558594 2172 4296.960938 2154.878906 C 4268.980469 2137.519531 4230.261719 2126.789062 4187.441406 2126.789062 C 4144.609375 2126.789062 4105.890625 2137.519531 4077.910156 2154.878906 C 4050.308594 2172 4033.230469 2195.53125 4033.230469 2221.410156 C 4033.230469 2247.300781 4050.308594 2270.828125 4077.910156 2287.949219 C 4105.890625 2305.300781 4144.609375 2316.039062 4187.441406 2316.039062 C 4230.261719 2316.039062 4268.980469 2305.300781 4296.960938 2287.949219" fill-opacity="1" fill="#EFE700" fill-rule="nonzero"/>
<path d="M 4187.441406 2061.898438 C 4199.230469 2061.898438 4209.539062 2080.238281 4216.660156 2109.890625 C 4223.53125 2138.480469 4227.789062 2177.921875 4227.789062 2221.410156 C 4227.789062 2264.910156 4223.53125 2304.339844 4216.660156 2332.941406 C 4209.539062 2362.578125 4199.230469 2380.921875 4187.441406 2380.921875 C 4175.640625 2380.921875 4165.339844 2362.578125 4158.210938 2332.941406 C 4151.339844 2304.339844 4147.089844 2264.898438 4147.089844 2221.410156 C 4147.089844 2177.921875 4151.339844 2138.488281 4158.210938 2109.890625 C 4165.339844 2080.238281 4175.640625 2061.898438 4187.441406 2061.898438 Z M 4211.519531 2111.109375 C 4205 2083.988281 4196.460938 2067.210938 4187.441406 2067.210938 C 4178.410156 2067.210938 4169.871094 2083.988281 4163.351562 2111.109375 C 4156.578125 2139.28125 4152.390625 2178.28125 4152.390625 2221.410156 C 4152.390625 2264.550781 4156.578125 2303.539062 4163.351562 2331.71875 C 4169.871094 2358.839844 4178.410156 2375.621094 4187.441406 2375.621094 C 4196.460938 2375.621094 4205 2358.839844 4211.519531 2331.710938 C 4218.289062 2303.539062 4222.480469 2264.550781 4222.480469 2221.410156 C 4222.480469 2178.28125 4218.289062 2139.28125 4211.519531 2111.109375" fill-opacity="1" fill="#EFE700" fill-rule="nonzero"/>
<path d="M 4346.949219 2221.410156 C 4346.949219 2233.210938 4328.609375 2243.511719 4298.960938 2250.640625 C 4270.359375 2257.511719 4230.929688 2261.761719 4187.441406 2261.761719 C 4143.949219 2261.761719 4104.511719 2257.511719 4075.910156 2250.640625 C 4046.269531 2243.511719 4027.929688 2233.210938 4027.929688 2221.410156 C 4027.929688 2209.621094 4046.269531 2199.308594 4075.910156 2192.191406 C 4104.511719 2185.320312 4143.941406 2181.070312 4187.441406 2181.070312 C 4230.929688 2181.070312 4270.371094 2185.320312 4298.960938 2192.191406 C 4328.609375 2199.308594 4346.949219 2209.621094 4346.949219 2221.410156 Z M 4297.738281 2245.5 C 4324.859375 2238.980469 4341.640625 2230.441406 4341.640625 2221.410156 C 4341.640625 2212.390625 4324.859375 2203.851562 4297.738281 2197.328125 C 4269.570312 2190.558594 4230.570312 2186.371094 4187.441406 2186.371094 C 4144.300781 2186.371094 4105.308594 2190.558594 4077.140625 2197.328125 C 4050.011719 2203.851562 4033.230469 2212.390625 4033.230469 2221.410156 C 4033.230469 2230.441406 4050.011719 2238.980469 4077.128906 2245.5 C 4105.308594 2252.269531 4144.300781 2256.460938 4187.441406 2256.460938 C 4230.570312 2256.460938 4269.570312 2252.269531 4297.738281 2245.5" fill-opacity="1" fill="#EFE700" fill-rule="nonzero"/>
<path d="M 2665.261719 2791.179688 C 2665.261719 2734.101562 2713.738281 2684.039062 2786.558594 2655.980469 C 2776.53125 2682 2769.308594 2711.140625 2765.578125 2742.28125 C 2704.578125 2753.550781 2665.261719 2771.261719 2665.261719 2791.179688 C 2665.261719 2811.101562 2704.578125 2828.808594 2765.578125 2840.078125 C 2769.308594 2871.21875 2776.53125 2900.359375 2786.558594 2926.378906 C 2713.738281 2898.320312 2665.261719 2848.261719 2665.261719 2791.179688 Z M 2921.761719 2534.679688 C 2978.839844 2534.679688 3028.898438 2583.160156 3056.96875 2655.980469 C 3030.941406 2645.941406 3001.808594 2638.71875 2970.660156 2635 C 2959.398438 2573.988281 2941.679688 2534.679688 2921.761719 2534.679688 Z M 3056.96875 2655.980469 C 3129.789062 2684.039062 3178.269531 2734.101562 3178.269531 2791.179688 C 3178.269531 2848.261719 3129.789062 2898.320312 3056.96875 2926.390625 C 3067 2900.359375 3074.21875 2871.21875 3077.949219 2840.078125 C 3138.949219 2828.808594 3178.269531 2811.101562 3178.269531 2791.179688 C 3178.269531 2649.519531 3063.429688 2534.679688 2921.761719 2534.679688 C 2780.101562 2534.679688 2665.261719 2649.519531 2665.261719 2791.179688 C 2665.261719 2932.839844 2780.101562 3047.679688 2921.761719 3047.679688 C 3063.429688 3047.679688 3178.269531 2932.839844 3178.269531 2791.179688 C 3178.269531 2771.261719 3138.949219 2753.550781 3077.949219 2742.28125 C 3074.21875 2711.140625 3067 2682 3056.96875 2655.980469 Z M 3080.839844 2791.179688 C 3080.839844 2807.898438 3079.839844 2824.25 3077.949219 2840.078125 C 3049.890625 2845.269531 3017.238281 2849.089844 2981.710938 2851.128906 C 2982.820312 2831.898438 2983.410156 2811.820312 2983.410156 2791.179688 C 2983.410156 2770.539062 2982.820312 2750.460938 2981.710938 2731.230469 C 3017.238281 2733.28125 3049.890625 2737.101562 3077.949219 2742.28125 C 3079.839844 2758.109375 3080.839844 2774.460938 3080.839844 2791.179688 Z M 3056.96875 2926.390625 C 3028.898438 2999.199219 2978.839844 3047.679688 2921.761719 3047.679688 C 2941.679688 3047.679688 2959.398438 3008.371094 2970.660156 2947.371094 C 3001.808594 2943.640625 3030.941406 2936.421875 3056.96875 2926.390625 Z M 2981.710938 2851.128906 C 2979.671875 2886.648438 2975.851562 2919.300781 2970.660156 2947.371094 C 2954.839844 2949.261719 2938.488281 2950.25 2921.761719 2950.25 C 2905.039062 2950.25 2888.691406 2949.261719 2872.859375 2947.371094 C 2867.679688 2919.300781 2863.859375 2886.648438 2861.808594 2851.128906 C 2881.050781 2852.238281 2901.121094 2852.820312 2921.761719 2852.820312 C 2942.410156 2852.820312 2962.480469 2852.238281 2981.710938 2851.128906 Z M 2970.660156 2635 C 2975.851562 2663.058594 2979.671875 2695.710938 2981.710938 2731.230469 C 2962.480469 2730.121094 2942.410156 2729.539062 2921.761719 2729.539062 C 2901.121094 2729.539062 2881.050781 2730.121094 2861.808594 2731.230469 C 2863.859375 2695.710938 2867.679688 2663.058594 2872.859375 2635 C 2888.691406 2633.101562 2905.039062 2632.109375 2921.761719 2632.109375 C 2938.488281 2632.109375 2954.828125 2633.101562 2970.660156 2635 Z M 2872.859375 2947.371094 C 2884.128906 3008.371094 2901.839844 3047.679688 2921.761719 3047.679688 C 2864.679688 3047.679688 2814.621094 2999.199219 2786.558594 2926.390625 C 2812.589844 2936.421875 2841.71875 2943.640625 2872.859375 2947.371094 Z M 2861.808594 2731.230469 C 2860.710938 2750.460938 2860.121094 2770.539062 2860.121094 2791.179688 C 2860.121094 2811.820312 2860.710938 2831.898438 2861.808594 2851.128906 C 2826.289062 2849.089844 2793.640625 2845.269531 2765.578125 2840.078125 C 2763.679688 2824.25 2762.691406 2807.898438 2762.691406 2791.179688 C 2762.691406 2774.460938 2763.679688 2758.109375 2765.578125 2742.28125 C 2793.640625 2737.101562 2826.289062 2733.28125 2861.808594 2731.230469 Z M 2921.761719 2534.679688 C 2901.839844 2534.679688 2884.128906 2574 2872.859375 2635 C 2841.71875 2638.71875 2812.589844 2645.941406 2786.558594 2655.980469 C 2814.621094 2583.160156 2864.679688 2534.679688 2921.761719 2534.679688" fill-opacity="1" fill="#EFE700" fill-rule="evenodd"/>
<path d="M 3600.21875 2903.78125 C 3565.730469 2938.148438 3518.148438 2959.398438 3465.609375 2959.398438 C 3360.28125 2959.398438 3274.898438 2874.019531 3274.898438 2768.699219 C 3274.898438 2685.980469 3327.570312 2615.570312 3401.199219 2589.148438 C 3366.550781 2623.679688 3345.101562 2671.449219 3345.101562 2724.238281 C 3345.101562 2829.558594 3430.480469 2914.941406 3535.808594 2914.941406 C 3558.410156 2914.941406 3580.101562 2911 3600.21875 2903.78125" fill-opacity="1" fill="#EFE700" fill-rule="evenodd"/>
<path d="M 3502.789062 2913.800781 C 3454.089844 2913.71875 3405.421875 2895.101562 3368.269531 2857.949219 C 3293.800781 2783.46875 3293.800781 2662.730469 3368.269531 2588.25 C 3426.761719 2529.761719 3513.789062 2517.21875 3584.53125 2550.601562 C 3535.609375 2550.519531 3486.671875 2569.128906 3449.351562 2606.449219 C 3374.871094 2680.929688 3374.871094 2801.679688 3449.351562 2876.148438 C 3465.328125 2892.140625 3483.449219 2904.679688 3502.789062 2913.800781" fill-opacity="1" fill="#EFE700" fill-rule="evenodd"/>
<path d="M 3426.808594 2852 C 3392.429688 2817.5 3371.179688 2769.929688 3371.179688 2717.390625 C 3371.179688 2612.058594 3456.558594 2526.679688 3561.890625 2526.679688 C 3644.609375 2526.679688 3715.011719 2579.351562 3741.429688 2652.96875 C 3706.898438 2618.320312 3659.128906 2596.878906 3606.351562 2596.878906 C 3501.019531 2596.878906 3415.640625 2682.261719 3415.640625 2787.589844 C 3415.640625 2810.191406 3419.589844 2831.871094 3426.808594 2852" fill-opacity="1" fill="#EFE700" fill-rule="evenodd"/>
<path d="M 3416.78125 2754.570312 C 3416.871094 2705.871094 3435.480469 2657.199219 3472.628906 2620.050781 C 3547.109375 2545.570312 3667.859375 2545.570312 3742.328125 2620.050781 C 3800.820312 2678.539062 3813.371094 2765.570312 3779.980469 2836.308594 C 3780.070312 2787.390625 3761.449219 2738.449219 3724.128906 2701.128906 C 3649.660156 2626.648438 3528.910156 2626.648438 3454.429688 2701.128906 C 3438.449219 2717.109375 3425.898438 2735.230469 3416.78125 2754.570312" fill-opacity="1" fill="#EFE700" fill-rule="evenodd"/>
<path d="M 3478.589844 2678.578125 C 3513.078125 2644.210938 3560.648438 2622.960938 3613.199219 2622.960938 C 3718.519531 2622.960938 3803.898438 2708.339844 3803.898438 2813.671875 C 3803.898438 2896.378906 3751.238281 2966.789062 3677.609375 2993.210938 C 3712.261719 2958.679688 3733.699219 2910.910156 3733.699219 2858.121094 C 3733.699219 2752.800781 3648.320312 2667.421875 3543 2667.421875 C 3520.390625 2667.421875 3498.710938 2671.359375 3478.589844 2678.578125" fill-opacity="1" fill="#EFE700" fill-rule="evenodd"/>
<path d="M 3576.019531 2668.558594 C 3624.710938 2668.640625 3673.378906 2687.261719 3710.53125 2724.410156 C 3785.011719 2798.890625 3785.011719 2919.628906 3710.53125 2994.109375 C 3652.039062 3052.601562 3565.019531 3065.140625 3494.28125 3031.761719 C 3543.191406 3031.851562 3592.140625 3013.230469 3629.460938 2975.910156 C 3703.929688 2901.429688 3703.929688 2780.691406 3629.460938 2706.210938 C 3613.46875 2690.21875 3595.351562 2677.679688 3576.019531 2668.558594" fill-opacity="1" fill="#EFE700" fill-rule="evenodd"/>
<path d="M 3652 2730.359375 C 3686.371094 2764.859375 3707.621094 2812.429688 3707.621094 2864.980469 C 3707.621094 2970.300781 3622.238281 3055.679688 3516.921875 3055.679688 C 3434.199219 3055.679688 3363.789062 3003.011719 3337.378906 2929.390625 C 3371.910156 2964.039062 3419.679688 2985.480469 3472.460938 2985.480469 C 3577.78125 2985.480469 3663.160156 2900.101562 3663.160156 2794.78125 C 3663.160156 2772.171875 3659.21875 2750.488281 3652 2730.359375" fill-opacity="1" fill="#EFE700" fill-rule="evenodd"/>
<path d="M 3662.03125 2827.800781 C 3661.941406 2876.488281 3643.328125 2925.160156 3606.171875 2962.308594 C 3531.699219 3036.789062 3410.949219 3036.789062 3336.46875 2962.308594 C 3296.441406 2922.28125 3277.941406 2868.890625 3280.941406 2816.5 C 3302.160156 2898.691406 3376.789062 2959.398438 3465.609375 2959.398438 C 3518.148438 2959.398438 3565.730469 2938.148438 3600.21875 2903.78125 C 3598.238281 2904.488281 3596.25 2905.171875 3594.238281 2905.808594 C 3604.898438 2898.800781 3615 2890.609375 3624.371094 2881.238281 C 3640.359375 2865.25 3652.898438 2847.128906 3662.03125 2827.800781" fill-opacity="1" fill="#EFE700" fill-rule="evenodd"/>
</svg>